<mxfile host="Electron" modified="2024-05-16T16:47:17.627Z" agent="Mozilla/5.0 (Windows NT 10.0; Win64; x64) AppleWebKit/537.36 (KHTML, like Gecko) draw.io/24.4.0 Chrome/120.0.6099.109 Electron/28.1.0 Safari/537.36" etag="ZSnfVvP8zLlzwz45B5ux" version="24.4.0" type="device">
  <diagram name="PÃ¡gina-1" id="qGptg48feIALP0QOibg7">
    <mxGraphModel dx="2186" dy="1775" grid="1" gridSize="10" guides="1" tooltips="1" connect="1" arrows="1" fold="1" page="1" pageScale="1" pageWidth="827" pageHeight="1169" math="0" shadow="0">
      <root>
        <mxCell id="0" />
        <mxCell id="1" parent="0" />
        <mxCell id="6JE-V1rgDyD5uSml1Uak-3" style="edgeStyle=orthogonalEdgeStyle;rounded=0;orthogonalLoop=1;jettySize=auto;html=1;entryX=0.5;entryY=1;entryDx=0;entryDy=0;strokeColor=#000000;" parent="1" source="6JE-V1rgDyD5uSml1Uak-1" target="6JE-V1rgDyD5uSml1Uak-2" edge="1">
          <mxGeometry relative="1" as="geometry" />
        </mxCell>
        <mxCell id="DszhKcmkCLHYVGABEn8L-7" value="rdf:type" style="edgeLabel;html=1;align=center;verticalAlign=middle;resizable=0;points=[];" parent="6JE-V1rgDyD5uSml1Uak-3" vertex="1" connectable="0">
          <mxGeometry x="0.0267" y="2" relative="1" as="geometry">
            <mxPoint as="offset" />
          </mxGeometry>
        </mxCell>
        <mxCell id="6JE-V1rgDyD5uSml1Uak-7" style="edgeStyle=orthogonalEdgeStyle;rounded=0;orthogonalLoop=1;jettySize=auto;html=1;exitX=0.25;exitY=0;exitDx=0;exitDy=0;entryX=0.5;entryY=1;entryDx=0;entryDy=0;strokeColor=#000000;" parent="1" source="6JE-V1rgDyD5uSml1Uak-1" target="6JE-V1rgDyD5uSml1Uak-6" edge="1">
          <mxGeometry relative="1" as="geometry" />
        </mxCell>
        <mxCell id="6JE-V1rgDyD5uSml1Uak-8" value="biolink:category" style="edgeLabel;html=1;align=center;verticalAlign=middle;resizable=0;points=[];strokeColor=#000000;" parent="6JE-V1rgDyD5uSml1Uak-7" connectable="0" vertex="1">
          <mxGeometry x="0.1844" y="1" relative="1" as="geometry">
            <mxPoint as="offset" />
          </mxGeometry>
        </mxCell>
        <mxCell id="6JE-V1rgDyD5uSml1Uak-52" style="edgeStyle=orthogonalEdgeStyle;rounded=0;orthogonalLoop=1;jettySize=auto;html=1;entryX=0.5;entryY=1;entryDx=0;entryDy=0;exitX=0.715;exitY=-0.01;exitDx=0;exitDy=0;exitPerimeter=0;" parent="1" source="6JE-V1rgDyD5uSml1Uak-1" target="6JE-V1rgDyD5uSml1Uak-49" edge="1">
          <mxGeometry relative="1" as="geometry">
            <Array as="points">
              <mxPoint x="520" y="180" />
              <mxPoint x="829" y="180" />
            </Array>
            <mxPoint x="520" y="210" as="sourcePoint" />
          </mxGeometry>
        </mxCell>
        <mxCell id="6JE-V1rgDyD5uSml1Uak-54" value="obo:RO_0002162&lt;div&gt;&quot;in taxon&quot;&lt;/div&gt;" style="edgeLabel;html=1;align=center;verticalAlign=middle;resizable=0;points=[];" parent="6JE-V1rgDyD5uSml1Uak-52" connectable="0" vertex="1">
          <mxGeometry x="-0.0762" y="-1" relative="1" as="geometry">
            <mxPoint as="offset" />
          </mxGeometry>
        </mxCell>
        <mxCell id="-bDPhzSc2MLhFLpv777F-19" style="edgeStyle=orthogonalEdgeStyle;rounded=0;orthogonalLoop=1;jettySize=auto;html=1;exitX=1;exitY=0.75;exitDx=0;exitDy=0;entryX=0;entryY=0.5;entryDx=0;entryDy=0;" parent="1" source="6JE-V1rgDyD5uSml1Uak-1" target="-bDPhzSc2MLhFLpv777F-16" edge="1">
          <mxGeometry relative="1" as="geometry">
            <Array as="points">
              <mxPoint x="780" y="315" />
              <mxPoint x="780" y="400" />
            </Array>
          </mxGeometry>
        </mxCell>
        <mxCell id="L7Yt5Qs3PYceXHm6uux9-1" value="rdfs:isDefinedBy" style="edgeLabel;html=1;align=center;verticalAlign=middle;resizable=0;points=[];" parent="-bDPhzSc2MLhFLpv777F-19" vertex="1" connectable="0">
          <mxGeometry x="0.5757" relative="1" as="geometry">
            <mxPoint as="offset" />
          </mxGeometry>
        </mxCell>
        <mxCell id="-bDPhzSc2MLhFLpv777F-20" style="edgeStyle=orthogonalEdgeStyle;rounded=0;orthogonalLoop=1;jettySize=auto;html=1;exitX=1;exitY=0.25;exitDx=0;exitDy=0;entryX=0.5;entryY=1;entryDx=0;entryDy=0;" parent="1" source="6JE-V1rgDyD5uSml1Uak-1" target="6JE-V1rgDyD5uSml1Uak-61" edge="1">
          <mxGeometry relative="1" as="geometry">
            <Array as="points">
              <mxPoint x="780" y="265" />
              <mxPoint x="780" y="220" />
              <mxPoint x="1080" y="220" />
            </Array>
          </mxGeometry>
        </mxCell>
        <mxCell id="L7Yt5Qs3PYceXHm6uux9-34" style="edgeStyle=orthogonalEdgeStyle;rounded=0;orthogonalLoop=1;jettySize=auto;html=1;entryX=0;entryY=0.5;entryDx=0;entryDy=0;exitX=0.57;exitY=0.994;exitDx=0;exitDy=0;exitPerimeter=0;" parent="1" source="6JE-V1rgDyD5uSml1Uak-1" target="-bDPhzSc2MLhFLpv777F-31" edge="1">
          <mxGeometry relative="1" as="geometry">
            <Array as="points">
              <mxPoint x="480" y="625" />
            </Array>
          </mxGeometry>
        </mxCell>
        <mxCell id="L7Yt5Qs3PYceXHm6uux9-35" value="obo:RO_0002131&lt;div&gt;&quot;overlap&quot;&lt;/div&gt;" style="edgeLabel;html=1;align=center;verticalAlign=middle;resizable=0;points=[];" parent="L7Yt5Qs3PYceXHm6uux9-34" vertex="1" connectable="0">
          <mxGeometry x="0.1142" relative="1" as="geometry">
            <mxPoint x="91" as="offset" />
          </mxGeometry>
        </mxCell>
        <mxCell id="6JE-V1rgDyD5uSml1Uak-1" value="&lt;p style=&quot;margin: 4px 0px 0px; text-align: center;&quot;&gt;&lt;span style=&quot;background-color: initial; text-align: left;&quot;&gt;&lt;b&gt;bgw_hvariant:VARHS34&lt;/b&gt;&lt;/span&gt;&lt;/p&gt;&lt;hr style=&quot;border-style: solid;&quot; size=&quot;1&quot;&gt;&lt;p style=&quot;margin: 0px 0px 0px 8px;&quot;&gt;&lt;i&gt;skos:prefLabel&lt;/i&gt;&amp;nbsp;&quot;variant/VARHS34&quot;&lt;/p&gt;&lt;p style=&quot;margin: 0px 0px 0px 8px;&quot;&gt;skos:altLabel&amp;nbsp;&lt;font style=&quot;font-size: 11px;&quot; face=&quot;Helvetica&quot;&gt;&quot;NC_000001.11:g.&lt;/font&gt;45338416&lt;font style=&quot;font-size: 11px;&quot; face=&quot;Helvetica&quot;&gt;&quot;&lt;/font&gt;&lt;/p&gt;&lt;p style=&quot;margin: 0px 0px 0px 8px;&quot;&gt;&lt;i&gt;skos:definition&lt;/i&gt;&amp;nbsp;&quot;SNV located in Homo sapiens position chr1:45338416&lt;span style=&quot;background-color: initial; text-align: center;&quot;&gt;&quot;&lt;/span&gt;&lt;/p&gt;&lt;p style=&quot;margin: 0px 0px 0px 8px;&quot;&gt;&lt;i style=&quot;background-color: initial;&quot;&gt;obo:start position &quot;&lt;/i&gt;45338416&quot;&lt;span style=&quot;background-color: initial;&quot;&gt;&amp;nbsp;&lt;/span&gt;&lt;br&gt;&lt;/p&gt;&lt;p style=&quot;margin: 0px 0px 0px 8px;&quot;&gt;&lt;i&gt;obo:end position&lt;/i&gt;&amp;nbsp;&quot;&lt;span style=&quot;background-color: initial;&quot;&gt;45338416&quot;&lt;/span&gt;&lt;/p&gt;" style="verticalAlign=top;align=left;overflow=fill;html=1;whiteSpace=wrap;strokeColor=#FF0000;" parent="1" vertex="1">
          <mxGeometry x="320" y="240" width="280" height="140" as="geometry" />
        </mxCell>
        <mxCell id="DszhKcmkCLHYVGABEn8L-5" style="edgeStyle=orthogonalEdgeStyle;rounded=0;orthogonalLoop=1;jettySize=auto;html=1;exitX=0.5;exitY=0;exitDx=0;exitDy=0;" parent="1" source="6JE-V1rgDyD5uSml1Uak-2" target="DszhKcmkCLHYVGABEn8L-4" edge="1">
          <mxGeometry relative="1" as="geometry" />
        </mxCell>
        <mxCell id="DszhKcmkCLHYVGABEn8L-6" value="rdfs:subClassOf" style="edgeLabel;html=1;align=center;verticalAlign=middle;resizable=0;points=[];" parent="DszhKcmkCLHYVGABEn8L-5" vertex="1" connectable="0">
          <mxGeometry x="-0.0686" y="3" relative="1" as="geometry">
            <mxPoint as="offset" />
          </mxGeometry>
        </mxCell>
        <mxCell id="6JE-V1rgDyD5uSml1Uak-2" value="&lt;p style=&quot;margin: 4px 0px 0px; text-align: center;&quot;&gt;&lt;span style=&quot;background-color: initial; text-align: left;&quot;&gt;&lt;b&gt;obo:&lt;/b&gt;&lt;/span&gt;&lt;span style=&quot;background-color: initial; text-align: left;&quot;&gt;&lt;b&gt;SO_0000667&lt;/b&gt;&lt;/span&gt;&lt;/p&gt;&lt;hr style=&quot;border-style: solid;&quot; size=&quot;1&quot;&gt;&lt;p style=&quot;margin: 0px 0px 0px 8px;&quot;&gt;&lt;i&gt;skos:prefLabel&amp;nbsp;&lt;/i&gt;&quot;Insertion&quot;&lt;/p&gt;" style="verticalAlign=top;align=left;overflow=fill;html=1;whiteSpace=wrap;strokeColor=#000000;" parent="1" vertex="1">
          <mxGeometry x="320" y="70" width="280" height="50" as="geometry" />
        </mxCell>
        <mxCell id="6JE-V1rgDyD5uSml1Uak-6" value="&lt;p style=&quot;margin: 4px 0px 0px; text-align: center;&quot;&gt;&lt;span style=&quot;background-color: initial; text-align: left;&quot;&gt;&lt;b&gt;biolink:SequenceVariant&lt;/b&gt;&lt;/span&gt;&lt;/p&gt;&lt;hr style=&quot;border-style: solid;&quot; size=&quot;1&quot;&gt;&lt;p style=&quot;margin: 0px 0px 0px 8px;&quot;&gt;&lt;i&gt;skos:prefLabel&amp;nbsp;&lt;/i&gt;&quot;sequence variant&quot;&lt;/p&gt;" style="verticalAlign=top;align=left;overflow=fill;html=1;whiteSpace=wrap;strokeColor=#000000;" parent="1" vertex="1">
          <mxGeometry x="-40" y="70" width="280" height="50" as="geometry" />
        </mxCell>
        <mxCell id="6JE-V1rgDyD5uSml1Uak-14" value="" style="edgeStyle=orthogonalEdgeStyle;rounded=0;orthogonalLoop=1;jettySize=auto;html=1;" parent="1" source="6JE-V1rgDyD5uSml1Uak-18" target="6JE-V1rgDyD5uSml1Uak-19" edge="1">
          <mxGeometry relative="1" as="geometry" />
        </mxCell>
        <mxCell id="6JE-V1rgDyD5uSml1Uak-15" value="rdfs:subClassOf" style="edgeLabel;html=1;align=center;verticalAlign=middle;resizable=0;points=[];" parent="6JE-V1rgDyD5uSml1Uak-14" connectable="0" vertex="1">
          <mxGeometry x="0.0906" y="1" relative="1" as="geometry">
            <mxPoint x="6" y="-1" as="offset" />
          </mxGeometry>
        </mxCell>
        <mxCell id="6JE-V1rgDyD5uSml1Uak-16" style="edgeStyle=orthogonalEdgeStyle;rounded=0;orthogonalLoop=1;jettySize=auto;html=1;exitX=0.5;exitY=0;exitDx=0;exitDy=0;entryX=0.5;entryY=1;entryDx=0;entryDy=0;" parent="1" source="6JE-V1rgDyD5uSml1Uak-18" target="6JE-V1rgDyD5uSml1Uak-20" edge="1">
          <mxGeometry relative="1" as="geometry" />
        </mxCell>
        <mxCell id="6JE-V1rgDyD5uSml1Uak-17" value="biolink:category" style="edgeLabel;html=1;align=center;verticalAlign=middle;resizable=0;points=[];" parent="6JE-V1rgDyD5uSml1Uak-16" connectable="0" vertex="1">
          <mxGeometry x="-0.0421" y="4" relative="1" as="geometry">
            <mxPoint x="4" y="4" as="offset" />
          </mxGeometry>
        </mxCell>
        <mxCell id="6JE-V1rgDyD5uSml1Uak-18" value="&lt;p style=&quot;margin: 4px 0px 0px; text-align: center;&quot;&gt;&lt;b&gt;assembly:GCF_000001405.26&lt;/b&gt;&lt;/p&gt;&lt;hr style=&quot;border-style: solid;&quot; size=&quot;1&quot;&gt;&lt;p style=&quot;margin: 0px 0px 0px 8px;&quot;&gt;&lt;i&gt;skos:prefLabel&lt;/i&gt;&amp;nbsp;&quot;GRCh38&quot;&lt;/p&gt;&lt;p style=&quot;margin: 0px 0px 0px 8px;&quot;&gt;&lt;i&gt;skos:altLabel&amp;nbsp;&lt;/i&gt;&quot;hg38&quot;&lt;/p&gt;" style="verticalAlign=top;align=left;overflow=fill;html=1;whiteSpace=wrap;" parent="1" vertex="1">
          <mxGeometry x="-400" y="170" width="320" height="70" as="geometry" />
        </mxCell>
        <mxCell id="6JE-V1rgDyD5uSml1Uak-19" value="&lt;p style=&quot;margin: 4px 0px 0px; text-align: center;&quot;&gt;&lt;b&gt;obo:&lt;span style=&quot;background-color: initial; text-align: left;&quot;&gt;SO_0001505&lt;/span&gt;&lt;/b&gt;&lt;/p&gt;&lt;hr style=&quot;border-style: solid;&quot; size=&quot;1&quot;&gt;&lt;p style=&quot;margin: 0px 0px 0px 8px;&quot;&gt;&lt;i&gt;skos:prefLabel&lt;/i&gt;&amp;nbsp;&quot;reference genome&quot;&lt;/p&gt;&lt;p style=&quot;margin: 0px 0px 0px 8px;&quot;&gt;&lt;br&gt;&lt;/p&gt;" style="verticalAlign=top;align=left;overflow=fill;html=1;whiteSpace=wrap;" parent="1" vertex="1">
          <mxGeometry x="-760" y="170" width="240" height="70" as="geometry" />
        </mxCell>
        <mxCell id="6JE-V1rgDyD5uSml1Uak-20" value="&lt;p style=&quot;margin: 4px 0px 0px; text-align: center;&quot;&gt;&lt;b&gt;biolink:Genome&lt;/b&gt;&lt;/p&gt;&lt;hr style=&quot;border-style: solid;&quot; size=&quot;1&quot;&gt;&lt;p style=&quot;margin: 0px 0px 0px 8px;&quot;&gt;&lt;i&gt;skos:prefLabel&amp;nbsp;&lt;/i&gt;&quot;genome&quot;&lt;/p&gt;" style="verticalAlign=top;align=left;overflow=fill;html=1;whiteSpace=wrap;" parent="1" vertex="1">
          <mxGeometry x="-330" y="70" width="180" height="50" as="geometry" />
        </mxCell>
        <mxCell id="6JE-V1rgDyD5uSml1Uak-27" style="edgeStyle=orthogonalEdgeStyle;rounded=0;orthogonalLoop=1;jettySize=auto;html=1;entryX=1;entryY=0.5;entryDx=0;entryDy=0;exitX=0;exitY=0.25;exitDx=0;exitDy=0;" parent="1" source="6JE-V1rgDyD5uSml1Uak-1" target="6JE-V1rgDyD5uSml1Uak-18" edge="1">
          <mxGeometry relative="1" as="geometry">
            <mxPoint x="-90" y="240" as="sourcePoint" />
          </mxGeometry>
        </mxCell>
        <mxCell id="6JE-V1rgDyD5uSml1Uak-28" value="dc:hasVersion" style="edgeLabel;html=1;align=center;verticalAlign=middle;resizable=0;points=[];" parent="6JE-V1rgDyD5uSml1Uak-27" connectable="0" vertex="1">
          <mxGeometry x="-0.025" y="3" relative="1" as="geometry">
            <mxPoint x="-112" y="-40" as="offset" />
          </mxGeometry>
        </mxCell>
        <mxCell id="6JE-V1rgDyD5uSml1Uak-40" style="edgeStyle=orthogonalEdgeStyle;rounded=0;orthogonalLoop=1;jettySize=auto;html=1;exitX=0;exitY=0.75;exitDx=0;exitDy=0;entryX=1;entryY=0.5;entryDx=0;entryDy=0;" parent="1" source="6JE-V1rgDyD5uSml1Uak-1" target="6JE-V1rgDyD5uSml1Uak-38" edge="1">
          <mxGeometry relative="1" as="geometry">
            <mxPoint x="-90" y="340" as="sourcePoint" />
          </mxGeometry>
        </mxCell>
        <mxCell id="6JE-V1rgDyD5uSml1Uak-41" value="obo:BFO_0000050&lt;div&gt;&quot;part of&quot;&lt;/div&gt;" style="edgeLabel;html=1;align=center;verticalAlign=middle;resizable=0;points=[];" parent="6JE-V1rgDyD5uSml1Uak-40" connectable="0" vertex="1">
          <mxGeometry x="-0.5011" y="-2" relative="1" as="geometry">
            <mxPoint x="-179" y="90" as="offset" />
          </mxGeometry>
        </mxCell>
        <mxCell id="6JE-V1rgDyD5uSml1Uak-36" style="edgeStyle=orthogonalEdgeStyle;rounded=0;orthogonalLoop=1;jettySize=auto;html=1;exitX=0;exitY=0.5;exitDx=0;exitDy=0;" parent="1" source="6JE-V1rgDyD5uSml1Uak-38" target="6JE-V1rgDyD5uSml1Uak-39" edge="1">
          <mxGeometry relative="1" as="geometry" />
        </mxCell>
        <mxCell id="6JE-V1rgDyD5uSml1Uak-37" value="biolink:category" style="edgeLabel;html=1;align=center;verticalAlign=middle;resizable=0;points=[];" parent="6JE-V1rgDyD5uSml1Uak-36" connectable="0" vertex="1">
          <mxGeometry x="-0.2947" y="-4" relative="1" as="geometry">
            <mxPoint x="-18" y="4" as="offset" />
          </mxGeometry>
        </mxCell>
        <mxCell id="9ujn6fpOiZaa6l7L4GmL-2" style="edgeStyle=orthogonalEdgeStyle;rounded=0;orthogonalLoop=1;jettySize=auto;html=1;entryX=1;entryY=0.5;entryDx=0;entryDy=0;exitX=0.5;exitY=1;exitDx=0;exitDy=0;" parent="1" source="6JE-V1rgDyD5uSml1Uak-38" target="9ujn6fpOiZaa6l7L4GmL-1" edge="1">
          <mxGeometry relative="1" as="geometry" />
        </mxCell>
        <mxCell id="9ujn6fpOiZaa6l7L4GmL-3" value="rdfs:subClassOf" style="edgeLabel;html=1;align=center;verticalAlign=middle;resizable=0;points=[];" parent="9ujn6fpOiZaa6l7L4GmL-2" connectable="0" vertex="1">
          <mxGeometry x="0.1386" y="2" relative="1" as="geometry">
            <mxPoint x="22" y="-2" as="offset" />
          </mxGeometry>
        </mxCell>
        <mxCell id="6JE-V1rgDyD5uSml1Uak-38" value="&lt;p style=&quot;margin: 4px 0px 0px; text-align: center;&quot;&gt;&lt;b&gt;nuccore:NC_000001.11&lt;/b&gt;&lt;/p&gt;&lt;hr style=&quot;border-style: solid;&quot; size=&quot;1&quot;&gt;&lt;p style=&quot;margin: 0px 0px 0px 8px;&quot;&gt;&lt;i&gt;skos:prefLabel&lt;/i&gt;&amp;nbsp;&quot;chr-1&quot;&lt;/p&gt;" style="verticalAlign=top;align=left;overflow=fill;html=1;whiteSpace=wrap;" parent="1" vertex="1">
          <mxGeometry x="-400" y="390" width="320" height="70" as="geometry" />
        </mxCell>
        <mxCell id="6JE-V1rgDyD5uSml1Uak-39" value="&lt;p style=&quot;text-align: center; margin: 4px 0px 0px;&quot;&gt;&lt;b&gt;&lt;span style=&quot;background-color: initial;&quot;&gt;biolink:&lt;/span&gt;&lt;span style=&quot;background-color: initial; text-align: left;&quot;&gt;GenomicSequenceLocalization&lt;/span&gt;&lt;/b&gt;&lt;br&gt;&lt;/p&gt;&lt;hr style=&quot;border-style: solid;&quot; size=&quot;1&quot;&gt;&lt;p style=&quot;margin: 0px 0px 0px 8px;&quot;&gt;&lt;i&gt;skos:prefLabel&lt;/i&gt;&amp;nbsp;&quot;&lt;span style=&quot;background-color: initial;&quot;&gt;genomic sequence localization&quot;&lt;/span&gt;&lt;/p&gt;" style="verticalAlign=top;align=left;overflow=fill;html=1;whiteSpace=wrap;" parent="1" vertex="1">
          <mxGeometry x="-760" y="390" width="240" height="70" as="geometry" />
        </mxCell>
        <mxCell id="6JE-V1rgDyD5uSml1Uak-57" style="edgeStyle=orthogonalEdgeStyle;rounded=0;orthogonalLoop=1;jettySize=auto;html=1;exitX=0.5;exitY=0;exitDx=0;exitDy=0;entryX=0.5;entryY=1;entryDx=0;entryDy=0;" parent="1" source="6JE-V1rgDyD5uSml1Uak-49" target="6JE-V1rgDyD5uSml1Uak-50" edge="1">
          <mxGeometry relative="1" as="geometry" />
        </mxCell>
        <mxCell id="6JE-V1rgDyD5uSml1Uak-58" value="biolink:category" style="edgeLabel;html=1;align=center;verticalAlign=middle;resizable=0;points=[];" parent="6JE-V1rgDyD5uSml1Uak-57" connectable="0" vertex="1">
          <mxGeometry x="0.1478" y="5" relative="1" as="geometry">
            <mxPoint as="offset" />
          </mxGeometry>
        </mxCell>
        <mxCell id="6JE-V1rgDyD5uSml1Uak-49" value="&lt;p style=&quot;margin: 4px 0px 0px; text-align: center;&quot;&gt;&lt;b&gt;obo:NCBITaxon_9606&lt;/b&gt;&lt;/p&gt;&lt;hr style=&quot;border-style: solid;&quot; size=&quot;1&quot;&gt;&lt;p style=&quot;margin: 0px 0px 0px 8px;&quot;&gt;&lt;br&gt;&lt;/p&gt;" style="verticalAlign=top;align=left;overflow=fill;html=1;whiteSpace=wrap;strokeColor=#00CC00;" parent="1" vertex="1">
          <mxGeometry x="720" y="70" width="218.59" height="50" as="geometry" />
        </mxCell>
        <mxCell id="6JE-V1rgDyD5uSml1Uak-50" value="&lt;p style=&quot;margin: 4px 0px 0px; text-align: center;&quot;&gt;&lt;b&gt;biolink:&lt;span style=&quot;background-color: initial; text-align: left;&quot;&gt;OrganismTaxon&lt;/span&gt;&lt;/b&gt;&lt;/p&gt;&lt;hr style=&quot;border-style: solid;&quot; size=&quot;1&quot;&gt;&lt;p style=&quot;margin: 0px 0px 0px 8px;&quot;&gt;&lt;i&gt;skos:prefLabel&lt;/i&gt;&amp;nbsp;&quot;organism taxon&quot;&lt;/p&gt;" style="verticalAlign=top;align=left;overflow=fill;html=1;whiteSpace=wrap;" parent="1" vertex="1">
          <mxGeometry x="714.3" y="-50" width="230" height="50" as="geometry" />
        </mxCell>
        <mxCell id="6JE-V1rgDyD5uSml1Uak-59" style="edgeStyle=orthogonalEdgeStyle;rounded=0;orthogonalLoop=1;jettySize=auto;html=1;entryX=0;entryY=0.5;entryDx=0;entryDy=0;" parent="1" source="6JE-V1rgDyD5uSml1Uak-61" target="6JE-V1rgDyD5uSml1Uak-62" edge="1">
          <mxGeometry relative="1" as="geometry" />
        </mxCell>
        <mxCell id="6JE-V1rgDyD5uSml1Uak-60" value="biolink:category" style="edgeLabel;html=1;align=center;verticalAlign=middle;resizable=0;points=[];" parent="6JE-V1rgDyD5uSml1Uak-59" connectable="0" vertex="1">
          <mxGeometry x="-0.1814" y="-1" relative="1" as="geometry">
            <mxPoint x="11" y="-1" as="offset" />
          </mxGeometry>
        </mxCell>
        <mxCell id="6JE-V1rgDyD5uSml1Uak-66" style="edgeStyle=orthogonalEdgeStyle;rounded=0;orthogonalLoop=1;jettySize=auto;html=1;" parent="1" source="6JE-V1rgDyD5uSml1Uak-61" edge="1">
          <mxGeometry relative="1" as="geometry">
            <mxPoint x="1320" y="80" as="targetPoint" />
            <Array as="points">
              <mxPoint x="1080" y="80" />
            </Array>
          </mxGeometry>
        </mxCell>
        <mxCell id="6JE-V1rgDyD5uSml1Uak-68" value="rdfs:subClassOf" style="edgeLabel;html=1;align=center;verticalAlign=middle;resizable=0;points=[];" parent="6JE-V1rgDyD5uSml1Uak-66" connectable="0" vertex="1">
          <mxGeometry x="-0.028" y="-3" relative="1" as="geometry">
            <mxPoint x="44" y="-3" as="offset" />
          </mxGeometry>
        </mxCell>
        <mxCell id="6JE-V1rgDyD5uSml1Uak-61" value="&lt;p style=&quot;margin: 4px 0px 0px; text-align: center;&quot;&gt;&lt;b&gt;https://www.ncbi.nlm.nih.gov/dbvar/&lt;/b&gt;&lt;br&gt;&lt;/p&gt;&lt;hr style=&quot;border-style: solid;&quot; size=&quot;1&quot;&gt;&lt;p style=&quot;margin: 0px 0px 0px 8px;&quot;&gt;&lt;i&gt;skos:prefLabel&lt;/i&gt;&amp;nbsp;&quot;dbVar&quot;&lt;/p&gt;" style="verticalAlign=top;align=left;overflow=fill;html=1;whiteSpace=wrap;" parent="1" vertex="1">
          <mxGeometry x="960" y="145" width="240" height="50" as="geometry" />
        </mxCell>
        <mxCell id="6JE-V1rgDyD5uSml1Uak-62" value="&lt;p style=&quot;margin: 4px 0px 0px; text-align: center;&quot;&gt;&lt;b&gt;biolink:&lt;/b&gt;&lt;span style=&quot;background-color: initial; text-align: left;&quot;&gt;&lt;b&gt;InformationResource&lt;/b&gt;&lt;/span&gt;&lt;/p&gt;&lt;hr style=&quot;border-style: solid;&quot; size=&quot;1&quot;&gt;&lt;p style=&quot;margin: 0px 0px 0px 8px;&quot;&gt;&lt;i&gt;skos:prefLabel&lt;/i&gt;&amp;nbsp;&quot;information resource&quot;&lt;/p&gt;" style="verticalAlign=top;align=left;overflow=fill;html=1;whiteSpace=wrap;" parent="1" vertex="1">
          <mxGeometry x="1321" y="145" width="239" height="50" as="geometry" />
        </mxCell>
        <mxCell id="C7gnXm2cj4Lxc-WT4Sek-5" value="" style="edgeStyle=orthogonalEdgeStyle;rounded=0;orthogonalLoop=1;jettySize=auto;html=1;" parent="1" source="6JE-V1rgDyD5uSml1Uak-67" target="C7gnXm2cj4Lxc-WT4Sek-3" edge="1">
          <mxGeometry relative="1" as="geometry" />
        </mxCell>
        <mxCell id="6JE-V1rgDyD5uSml1Uak-67" value="&lt;p style=&quot;margin: 4px 0px 0px; text-align: center;&quot;&gt;&lt;b&gt;obo:NCIT_C15426&lt;/b&gt;&lt;span style=&quot;color: rgba(0, 0, 0, 0); font-family: monospace; font-size: 0px; text-wrap: nowrap; background-color: initial; text-align: left;&quot;&gt;%3CmxGraphModel%3E%3Croot%3E%3CmxCell%20id%3D%220%22%2F%3E%3CmxCell%20id%3D%221%22%20parent%3D%220%22%2F%3E%3CmxCell%20id%3D%222%22%20value%3D%22%26lt%3Bp%20style%3D%26quot%3Bmargin%3A%204px%200px%200px%3B%20text-align%3A%20center%3B%26quot%3B%26gt%3B%26lt%3Bb%26gt%3Bbiolink%3A%26lt%3B%2Fb%26gt%3B%26lt%3Bspan%20style%3D%26quot%3Bbackground-color%3A%20initial%3B%20text-align%3A%20left%3B%26quot%3B%26gt%3B%26lt%3Bb%26gt%3BInformationResource%26lt%3B%2Fb%26gt%3B%26lt%3B%2Fspan%26gt%3B%26lt%3B%2Fp%26gt%3B%26lt%3Bhr%20size%3D%26quot%3B1%26quot%3B%20style%3D%26quot%3Bborder-style%3Asolid%3B%26quot%3B%26gt%3B%26lt%3Bp%20style%3D%26quot%3Bmargin%3A0px%3Bmargin-left%3A8px%3B%26quot%3B%26gt%3B%26lt%3Bbr%26gt%3B%26lt%3B%2Fp%26gt%3B%22%20style%3D%22verticalAlign%3Dtop%3Balign%3Dleft%3Boverflow%3Dfill%3Bhtml%3D1%3BwhiteSpace%3Dwrap%3B%22%20vertex%3D%221%22%20parent%3D%221%22%3E%3CmxGeometry%20x%3D%221201%22%20y%3D%22265%22%20width%3D%22199%22%20height%3D%2250%22%20as%3D%22geometry%22%2F%3E%3C%2FmxCell%3E%3C%2Froot%3E%3C%2FmxGraphModel%3E&lt;/span&gt;&lt;/p&gt;&lt;hr style=&quot;border-style: solid;&quot; size=&quot;1&quot;&gt;&lt;p style=&quot;margin: 0px 0px 0px 8px;&quot;&gt;&lt;i&gt;skos:prefLabel&lt;/i&gt;&amp;nbsp;&quot;Database&quot;&lt;/p&gt;" style="verticalAlign=top;align=left;overflow=fill;html=1;whiteSpace=wrap;" parent="1" vertex="1">
          <mxGeometry x="1321" y="50" width="199" height="50" as="geometry" />
        </mxCell>
        <mxCell id="9ujn6fpOiZaa6l7L4GmL-1" value="&lt;p style=&quot;margin: 4px 0px 0px; text-align: center;&quot;&gt;&lt;b&gt;obo:&lt;span style=&quot;background-color: initial; text-align: left;&quot;&gt;SO_0000340&lt;/span&gt;&lt;/b&gt;&lt;/p&gt;&lt;hr style=&quot;border-style: solid;&quot; size=&quot;1&quot;&gt;&lt;p style=&quot;margin: 0px 0px 0px 8px;&quot;&gt;&lt;i&gt;skos:prefLabel&lt;/i&gt;&amp;nbsp;&quot;chromosome&quot;&lt;/p&gt;&lt;p style=&quot;margin: 0px 0px 0px 8px;&quot;&gt;&lt;br&gt;&lt;/p&gt;" style="verticalAlign=top;align=left;overflow=fill;html=1;whiteSpace=wrap;" parent="1" vertex="1">
          <mxGeometry x="-760" y="490" width="240" height="70" as="geometry" />
        </mxCell>
        <mxCell id="-bDPhzSc2MLhFLpv777F-1" value="&lt;div style=&quot;&quot;&gt;&lt;span style=&quot;background-color: initial;&quot;&gt;bao&amp;nbsp; &amp;nbsp; http:/www.bioassayontology.org/bao&lt;br&gt;&lt;/span&gt;&lt;/div&gt;&lt;div style=&quot;&quot;&gt;&lt;span style=&quot;background-color: initial;&quot;&gt;bgw_hvariant&lt;/span&gt;&lt;span style=&quot;background-color: initial; white-space: pre;&quot;&gt;&#x9;&lt;/span&gt;&lt;span style=&quot;background-color: initial;&quot;&gt;http://rdf.biogateway.eu/variant/9606/&lt;/span&gt;&lt;/div&gt;&lt;div style=&quot;&quot;&gt;&lt;span style=&quot;background-color: initial;&quot;&gt;bgw_variant2phen&lt;/span&gt;&lt;span style=&quot;background-color: initial; white-space: pre;&quot;&gt;&#x9;&lt;/span&gt;&lt;span style=&quot;background-color: initial;&quot;&gt;http://rdf.biogateway.eu/variant2phen/&lt;/span&gt;&lt;br&gt;&lt;/div&gt;&lt;div style=&quot;&quot;&gt;bgw_variant2gene http://rdf.biogateway.eu/variant2gene/&lt;/div&gt;&lt;div style=&quot;&quot;&gt;ontoclinvar&lt;span style=&quot;white-space: pre;&quot;&gt;&#x9;&lt;/span&gt;http://purl.jp/bio/10/clinvar-ontology#&lt;br&gt;&lt;/div&gt;&lt;div style=&quot;&quot;&gt;&lt;span style=&quot;background-color: initial;&quot;&gt;ncbigene&lt;/span&gt;&lt;span style=&quot;background-color: initial; white-space: pre;&quot;&gt;&#x9;&lt;/span&gt;&lt;span style=&quot;background-color: initial;&quot;&gt;http://identifiers.org/ncbigene/&lt;/span&gt;&lt;br&gt;&lt;/div&gt;&lt;div&gt;uniprot&lt;span style=&quot;white-space:pre&quot;&gt;&#x9;&lt;/span&gt;http://uniprot.org/uniprot/&lt;/div&gt;&lt;div&gt;&lt;span style=&quot;background-color: initial;&quot;&gt;purl_uniprot&lt;/span&gt;&lt;span style=&quot;background-color: initial; white-space: pre;&quot;&gt;&#x9;&lt;/span&gt;&lt;span style=&quot;background-color: initial;&quot;&gt;http://purl.uniprot.org/uniprot/&lt;/span&gt;&lt;br&gt;&lt;/div&gt;&lt;div&gt;obo&lt;span style=&quot;white-space:pre&quot;&gt;&#x9;&lt;/span&gt;http://purl.obolibrary.org/obo/&lt;/div&gt;&lt;div&gt;&lt;span style=&quot;background-color: initial;&quot;&gt;omim&lt;/span&gt;&lt;span style=&quot;background-color: initial; white-space: pre;&quot;&gt;&#x9;&lt;/span&gt;&lt;span style=&quot;background-color: initial;&quot;&gt;http://purl.bioontology.org/ontology/OMIM/&lt;/span&gt;&lt;br&gt;&lt;/div&gt;&lt;div&gt;&lt;span style=&quot;background-color: initial;&quot;&gt;pubmed&lt;/span&gt;&lt;span style=&quot;background-color: initial; white-space: pre;&quot;&gt;&#x9;&lt;/span&gt;&lt;span style=&quot;background-color: initial;&quot;&gt;http://identifiers.org/pubmed/&lt;/span&gt;&lt;br&gt;&lt;/div&gt;&lt;div&gt;ncbi_pubmed&lt;span style=&quot;white-space:pre&quot;&gt;&#x9;&lt;/span&gt;http://www.ncbi.nlm.nih.gov/pubmed/&lt;/div&gt;&lt;div&gt;assembly&lt;span style=&quot;white-space:pre&quot;&gt;&#x9;&lt;/span&gt;https://www.ncbi.nlm.nih.gov/assembly/&lt;/div&gt;&lt;div&gt;nuccore&lt;span style=&quot;white-space:pre&quot;&gt;&#x9;&lt;/span&gt;https://www.ncbi.nlm.nih.gov/nuccore/&lt;/div&gt;&lt;div&gt;skos&lt;span style=&quot;white-space:pre&quot;&gt;&#x9;&lt;/span&gt;http://www.w3.org/2004/02/skos/core#&lt;/div&gt;&lt;div&gt;rdf&lt;span style=&quot;white-space:pre&quot;&gt;&#x9;&lt;/span&gt;http://www.w3.org/1999/02/22-rdf-syntax-ns#&lt;/div&gt;&lt;div&gt;rdfs&lt;span style=&quot;white-space:pre&quot;&gt;&#x9;&lt;/span&gt;http://www.w3.org/2000/01/rdf-schema#&lt;/div&gt;&lt;div&gt;schema&lt;span style=&quot;white-space:pre&quot;&gt;&#x9;&lt;/span&gt;http://schema.org/&lt;/div&gt;&lt;div&gt;dc&lt;span style=&quot;white-space:pre&quot;&gt;&#x9;&lt;/span&gt;http://purl.org/dc/terms/&lt;/div&gt;&lt;div&gt;sio&lt;span style=&quot;white-space:pre&quot;&gt;&#x9;&lt;/span&gt;http://semanticscience.org/resource/&lt;/div&gt;&lt;div&gt;biolink&lt;span style=&quot;white-space:pre&quot;&gt;&#x9;&lt;/span&gt;https://w3id.org/biolink/vocab/&lt;/div&gt;&lt;div&gt;linkml&lt;span style=&quot;white-space:pre&quot;&gt;&#x9;&lt;/span&gt;https://w3id.org/linkml/&lt;/div&gt;" style="shape=note;size=20;whiteSpace=wrap;html=1;align=left;" parent="1" vertex="1">
          <mxGeometry x="827" y="820" width="334.5" height="326" as="geometry" />
        </mxCell>
        <mxCell id="-bDPhzSc2MLhFLpv777F-14" style="edgeStyle=orthogonalEdgeStyle;rounded=0;orthogonalLoop=1;jettySize=auto;html=1;exitX=1;exitY=0.5;exitDx=0;exitDy=0;entryX=0;entryY=0.5;entryDx=0;entryDy=0;" parent="1" source="-bDPhzSc2MLhFLpv777F-16" target="-bDPhzSc2MLhFLpv777F-17" edge="1">
          <mxGeometry relative="1" as="geometry" />
        </mxCell>
        <mxCell id="-bDPhzSc2MLhFLpv777F-15" value="biolink:category" style="edgeLabel;html=1;align=center;verticalAlign=middle;resizable=0;points=[];" parent="-bDPhzSc2MLhFLpv777F-14" connectable="0" vertex="1">
          <mxGeometry x="-0.2286" y="-4" relative="1" as="geometry">
            <mxPoint x="9" y="-4" as="offset" />
          </mxGeometry>
        </mxCell>
        <mxCell id="-bDPhzSc2MLhFLpv777F-16" value="&lt;p style=&quot;margin: 4px 0px 0px; text-align: center;&quot;&gt;&lt;b&gt;bao:&lt;/b&gt;&lt;span style=&quot;background-color: initial; text-align: left;&quot;&gt;&lt;b&gt;BAO_0040026&lt;/b&gt;&lt;/span&gt;&lt;br&gt;&lt;/p&gt;&lt;hr size=&quot;1&quot; style=&quot;border-style:solid;&quot;&gt;&lt;p style=&quot;margin:0px;margin-left:8px;&quot;&gt;&lt;i&gt;skos:prefLabel&lt;/i&gt;&amp;nbsp;&quot;Sequencing&quot;&lt;br&gt;&lt;/p&gt;" style="verticalAlign=top;align=left;overflow=fill;html=1;whiteSpace=wrap;" parent="1" vertex="1">
          <mxGeometry x="950" y="374.99999999999994" width="180.06" height="50" as="geometry" />
        </mxCell>
        <mxCell id="-bDPhzSc2MLhFLpv777F-17" value="&lt;p style=&quot;margin: 4px 0px 0px; text-align: center;&quot;&gt;&lt;b&gt;biolink:EvidenceType&lt;/b&gt;&lt;/p&gt;&lt;hr size=&quot;1&quot; style=&quot;border-style:solid;&quot;&gt;&lt;p style=&quot;margin:0px;margin-left:8px;&quot;&gt;&lt;i&gt;skos:prefLabel&lt;/i&gt;&amp;nbsp;&quot;EvidenceType&quot;&lt;br&gt;&lt;/p&gt;" style="verticalAlign=top;align=left;overflow=fill;html=1;whiteSpace=wrap;" parent="1" vertex="1">
          <mxGeometry x="1260" y="375" width="180" height="50" as="geometry" />
        </mxCell>
        <mxCell id="-bDPhzSc2MLhFLpv777F-21" value="sio:SIO_000253&lt;div&gt;&quot;has source&quot;&lt;/div&gt;" style="edgeLabel;html=1;align=center;verticalAlign=middle;resizable=0;points=[];" parent="1" connectable="0" vertex="1">
          <mxGeometry x="869.9933221100215" y="220" as="geometry" />
        </mxCell>
        <mxCell id="-bDPhzSc2MLhFLpv777F-29" style="edgeStyle=orthogonalEdgeStyle;rounded=0;orthogonalLoop=1;jettySize=auto;html=1;exitX=0.5;exitY=1;exitDx=0;exitDy=0;entryX=0.5;entryY=0;entryDx=0;entryDy=0;" parent="1" source="-bDPhzSc2MLhFLpv777F-31" target="-bDPhzSc2MLhFLpv777F-34" edge="1">
          <mxGeometry relative="1" as="geometry" />
        </mxCell>
        <mxCell id="-bDPhzSc2MLhFLpv777F-30" value="skos:closeMatch" style="edgeLabel;html=1;align=center;verticalAlign=middle;resizable=0;points=[];" parent="-bDPhzSc2MLhFLpv777F-29" connectable="0" vertex="1">
          <mxGeometry x="-0.2044" relative="1" as="geometry">
            <mxPoint x="3" as="offset" />
          </mxGeometry>
        </mxCell>
        <mxCell id="-bDPhzSc2MLhFLpv777F-31" value="&lt;p style=&quot;margin: 4px 0px 0px; text-align: center;&quot;&gt;&lt;span style=&quot;background-color: initial;&quot;&gt;&lt;b&gt;bgw_hgene:&lt;/b&gt;&lt;/span&gt;&lt;strong style=&quot;background-color: initial; text-align: left;&quot;&gt;MUTYH&lt;/strong&gt;&lt;/p&gt;&lt;hr style=&quot;border-style: solid;&quot; size=&quot;1&quot;&gt;&lt;p style=&quot;margin: 0px 0px 0px 8px;&quot;&gt;&lt;br&gt;&lt;/p&gt;" style="verticalAlign=top;align=left;overflow=fill;html=1;whiteSpace=wrap;strokeColor=#006600;" parent="1" vertex="1">
          <mxGeometry x="700" y="600" width="254.5" height="50" as="geometry" />
        </mxCell>
        <mxCell id="-bDPhzSc2MLhFLpv777F-32" style="edgeStyle=orthogonalEdgeStyle;rounded=0;orthogonalLoop=1;jettySize=auto;html=1;entryX=0;entryY=0.5;entryDx=0;entryDy=0;" parent="1" source="-bDPhzSc2MLhFLpv777F-34" target="-bDPhzSc2MLhFLpv777F-35" edge="1">
          <mxGeometry relative="1" as="geometry" />
        </mxCell>
        <mxCell id="-bDPhzSc2MLhFLpv777F-33" value="biolink:category" style="edgeLabel;html=1;align=center;verticalAlign=middle;resizable=0;points=[];" parent="-bDPhzSc2MLhFLpv777F-32" connectable="0" vertex="1">
          <mxGeometry x="-0.1148" relative="1" as="geometry">
            <mxPoint as="offset" />
          </mxGeometry>
        </mxCell>
        <mxCell id="-bDPhzSc2MLhFLpv777F-34" value="&lt;p style=&quot;text-align: left; margin: 4px 0px 0px;&quot;&gt;&amp;nbsp; &amp;nbsp; &amp;nbsp; &amp;nbsp; &amp;nbsp;&amp;nbsp;&lt;span style=&quot;background-color: initial;&quot;&gt;&amp;nbsp;&lt;/span&gt;&lt;span style=&quot;background-color: initial;&quot;&gt;&amp;nbsp;&lt;/span&gt;&lt;b style=&quot;background-color: initial;&quot;&gt;ncbigene:&lt;/b&gt;&lt;span style=&quot;background-color: initial;&quot;&gt;4595&lt;/span&gt;&lt;/p&gt;&lt;hr size=&quot;1&quot; style=&quot;border-style:solid;&quot;&gt;&lt;p style=&quot;margin:0px;margin-left:8px;&quot;&gt;&lt;br&gt;&lt;/p&gt;" style="verticalAlign=top;align=left;overflow=fill;html=1;whiteSpace=wrap;strokeColor=#000000;" parent="1" vertex="1">
          <mxGeometry x="720" y="708" width="210" height="50" as="geometry" />
        </mxCell>
        <mxCell id="-bDPhzSc2MLhFLpv777F-35" value="&lt;p style=&quot;margin: 4px 0px 0px; text-align: center;&quot;&gt;&lt;b&gt;biolink:Gene&lt;/b&gt;&lt;/p&gt;&lt;hr style=&quot;border-style: solid;&quot; size=&quot;1&quot;&gt;&lt;p style=&quot;margin: 0px 0px 0px 8px;&quot;&gt;&lt;i&gt;skos:prefLabel&lt;/i&gt;&amp;nbsp;&quot;gene&quot;&lt;/p&gt;" style="verticalAlign=top;align=left;overflow=fill;html=1;whiteSpace=wrap;" parent="1" vertex="1">
          <mxGeometry x="1060" y="708" width="160" height="50" as="geometry" />
        </mxCell>
        <mxCell id="9KIsFGIlP7Z-SoxvjUDf-3" value="Entidades ya modeladas en BioGateway" style="rounded=0;whiteSpace=wrap;html=1;strokeColor=#00CC00;" parent="1" vertex="1">
          <mxGeometry x="1251.5" y="820" width="150" height="60" as="geometry" />
        </mxCell>
        <mxCell id="9KIsFGIlP7Z-SoxvjUDf-5" value="Entidad central del grafo" style="rounded=0;whiteSpace=wrap;html=1;strokeColor=#FF0000;" parent="1" vertex="1">
          <mxGeometry x="1251.5" y="925" width="150" height="60" as="geometry" />
        </mxCell>
        <mxCell id="L7Yt5Qs3PYceXHm6uux9-151" style="edgeStyle=orthogonalEdgeStyle;rounded=0;orthogonalLoop=1;jettySize=auto;html=1;exitX=0;exitY=0.5;exitDx=0;exitDy=0;entryX=1;entryY=0.5;entryDx=0;entryDy=0;" parent="1" edge="1">
          <mxGeometry relative="1" as="geometry">
            <mxPoint x="280" y="808" as="sourcePoint" />
          </mxGeometry>
        </mxCell>
        <mxCell id="DszhKcmkCLHYVGABEn8L-1" value="" style="edgeStyle=orthogonalEdgeStyle;rounded=0;orthogonalLoop=1;jettySize=auto;html=1;exitX=0.5;exitY=0;exitDx=0;exitDy=0;" parent="1" source="DszhKcmkCLHYVGABEn8L-4" target="DszhKcmkCLHYVGABEn8L-3" edge="1">
          <mxGeometry relative="1" as="geometry" />
        </mxCell>
        <mxCell id="DszhKcmkCLHYVGABEn8L-2" value="biolink:category" style="edgeLabel;html=1;align=center;verticalAlign=middle;resizable=0;points=[];" parent="DszhKcmkCLHYVGABEn8L-1" connectable="0" vertex="1">
          <mxGeometry x="0.0743" y="1" relative="1" as="geometry">
            <mxPoint x="1" y="3" as="offset" />
          </mxGeometry>
        </mxCell>
        <mxCell id="DszhKcmkCLHYVGABEn8L-3" value="&lt;p style=&quot;margin: 4px 0px 0px; text-align: center;&quot;&gt;&lt;b&gt;biolink:OntologyClass&lt;/b&gt;&lt;/p&gt;&lt;hr style=&quot;border-style: solid;&quot; size=&quot;1&quot;&gt;&lt;i&gt;&amp;nbsp; skos:prefLabel&lt;/i&gt;&amp;nbsp;&quot;ontology class&quot;&lt;p style=&quot;margin: 4px 0px 0px; text-align: center;&quot;&gt;&lt;/p&gt;" style="verticalAlign=top;align=left;overflow=fill;html=1;whiteSpace=wrap;strokeColor=#000000;" parent="1" vertex="1">
          <mxGeometry x="340" y="-170" width="240" height="50" as="geometry" />
        </mxCell>
        <mxCell id="DszhKcmkCLHYVGABEn8L-4" value="&lt;p style=&quot;margin: 4px 0px 0px; text-align: center;&quot;&gt;&lt;span style=&quot;background-color: initial; text-align: left;&quot;&gt;&lt;b&gt;obo:SO_0001059&lt;/b&gt;&lt;/span&gt;&lt;/p&gt;&lt;hr style=&quot;border-style: solid;&quot; size=&quot;1&quot;&gt;&lt;p style=&quot;margin: 0px 0px 0px 8px;&quot;&gt;&lt;i&gt;skos:prefLabel&amp;nbsp;&lt;/i&gt;&quot;sequence alteration&quot;&lt;/p&gt;" style="verticalAlign=top;align=left;overflow=fill;html=1;whiteSpace=wrap;strokeColor=#000000;" parent="1" vertex="1">
          <mxGeometry x="320" y="-50" width="280" height="50" as="geometry" />
        </mxCell>
        <mxCell id="C7gnXm2cj4Lxc-WT4Sek-1" style="edgeStyle=orthogonalEdgeStyle;rounded=0;orthogonalLoop=1;jettySize=auto;html=1;entryX=0.5;entryY=1;entryDx=0;entryDy=0;" parent="1" source="6JE-V1rgDyD5uSml1Uak-67" target="C7gnXm2cj4Lxc-WT4Sek-3" edge="1">
          <mxGeometry relative="1" as="geometry">
            <mxPoint x="1426" y="30" as="sourcePoint" />
            <Array as="points">
              <mxPoint x="1421" y="15" />
              <mxPoint x="1421" y="15" />
              <mxPoint x="1421" y="-20" />
              <mxPoint x="1421" y="-20" />
            </Array>
          </mxGeometry>
        </mxCell>
        <mxCell id="C7gnXm2cj4Lxc-WT4Sek-2" value="biolink:category" style="edgeLabel;html=1;align=center;verticalAlign=middle;resizable=0;points=[];" parent="C7gnXm2cj4Lxc-WT4Sek-1" connectable="0" vertex="1">
          <mxGeometry x="-0.016" y="-3" relative="1" as="geometry">
            <mxPoint as="offset" />
          </mxGeometry>
        </mxCell>
        <mxCell id="C7gnXm2cj4Lxc-WT4Sek-3" value="&lt;p style=&quot;margin: 4px 0px 0px; text-align: center;&quot;&gt;&lt;b&gt;biolink:OntologyClass&lt;/b&gt;&lt;/p&gt;&lt;hr style=&quot;border-style: solid;&quot; size=&quot;1&quot;&gt;&lt;i&gt;&amp;nbsp; skos:prefLabel&lt;/i&gt;&amp;nbsp;&quot;ontology class&quot;&lt;p style=&quot;margin: 4px 0px 0px; text-align: center;&quot;&gt;&lt;/p&gt;" style="verticalAlign=top;align=left;overflow=fill;html=1;whiteSpace=wrap;strokeColor=#000000;" parent="1" vertex="1">
          <mxGeometry x="1315.5" y="-80" width="210" height="50" as="geometry" />
        </mxCell>
        <mxCell id="C7gnXm2cj4Lxc-WT4Sek-9" value="" style="edgeStyle=orthogonalEdgeStyle;rounded=0;orthogonalLoop=1;jettySize=auto;html=1;exitX=0;exitY=0.5;exitDx=0;exitDy=0;" parent="1" source="9ujn6fpOiZaa6l7L4GmL-1" target="C7gnXm2cj4Lxc-WT4Sek-11" edge="1">
          <mxGeometry relative="1" as="geometry">
            <mxPoint x="-780" y="515" as="sourcePoint" />
          </mxGeometry>
        </mxCell>
        <mxCell id="C7gnXm2cj4Lxc-WT4Sek-10" value="biolink:category" style="edgeLabel;html=1;align=center;verticalAlign=middle;resizable=0;points=[];" parent="C7gnXm2cj4Lxc-WT4Sek-9" connectable="0" vertex="1">
          <mxGeometry x="0.3822" y="-1" relative="1" as="geometry">
            <mxPoint x="33" y="1" as="offset" />
          </mxGeometry>
        </mxCell>
        <mxCell id="C7gnXm2cj4Lxc-WT4Sek-11" value="&lt;p style=&quot;margin: 4px 0px 0px; text-align: center;&quot;&gt;&lt;b&gt;biolink:OntologyClass&lt;/b&gt;&lt;/p&gt;&lt;hr size=&quot;1&quot; style=&quot;border-style:solid;&quot;&gt;&amp;nbsp;&amp;nbsp;&lt;i&gt;&amp;nbsp; skos:prefLabel&lt;/i&gt;&amp;nbsp;&quot;ontology class&quot;" style="verticalAlign=top;align=left;overflow=fill;html=1;whiteSpace=wrap;strokeColor=#000000;" parent="1" vertex="1">
          <mxGeometry x="-1190" y="500" width="240" height="50" as="geometry" />
        </mxCell>
        <mxCell id="C7gnXm2cj4Lxc-WT4Sek-12" value="" style="edgeStyle=orthogonalEdgeStyle;rounded=0;orthogonalLoop=1;jettySize=auto;html=1;" parent="1" source="6JE-V1rgDyD5uSml1Uak-19" target="C7gnXm2cj4Lxc-WT4Sek-14" edge="1">
          <mxGeometry relative="1" as="geometry">
            <mxPoint x="-640" y="125" as="sourcePoint" />
          </mxGeometry>
        </mxCell>
        <mxCell id="C7gnXm2cj4Lxc-WT4Sek-13" value="biolink:category" style="edgeLabel;html=1;align=center;verticalAlign=middle;resizable=0;points=[];" parent="C7gnXm2cj4Lxc-WT4Sek-12" connectable="0" vertex="1">
          <mxGeometry x="-0.208" y="-4" relative="1" as="geometry">
            <mxPoint as="offset" />
          </mxGeometry>
        </mxCell>
        <mxCell id="C7gnXm2cj4Lxc-WT4Sek-14" value="&lt;p style=&quot;margin: 4px 0px 0px; text-align: center;&quot;&gt;&lt;b&gt;biolink:OntologyClass&lt;/b&gt;&lt;/p&gt;&lt;hr size=&quot;1&quot; style=&quot;border-style:solid;&quot;&gt;&amp;nbsp;&lt;i&gt;&amp;nbsp; skos:prefLabel&lt;/i&gt;&amp;nbsp;&quot;ontology class&quot;" style="verticalAlign=top;align=left;overflow=fill;html=1;whiteSpace=wrap;strokeColor=#000000;" parent="1" vertex="1">
          <mxGeometry x="-765" y="25" width="250" height="50" as="geometry" />
        </mxCell>
      </root>
    </mxGraphModel>
  </diagram>
</mxfile>
